<?xml version="1.0" encoding="utf-8"?>
<!-- Generator: Adobe Illustrator 19.0.0, SVG Export Plug-In . SVG Version: 6.00 Build 0)  -->
<svg version="1.1" id="Layer_1" xmlns="http://www.w3.org/2000/svg" xmlns:xlink="http://www.w3.org/1999/xlink" x="0px" y="0px"
	 viewBox="0 0 153.1 311.8" style="enable-background:new 0 0 153.1 311.8;" xml:space="preserve">
<path d="M-393,61.8c2-1.7,3.7-3.8,5.9-5.1c10.7-6.8,21.5-13.4,32.3-20c8.5-5.2,16.3-10.8,19.5-21.1c0.9-2.9,3.7-5.6,6.3-7.6
	c13.8-10.8,29.3-17.7,47-19c3.1-0.2,6.6-0.1,9.2,1.3c4.3,2.4,7.9,1.7,11.7-0.4c14.1-7.9,28.1-16,42.3-23.6c8.2-4.4,16.6-8.5,25.2-12
	c2.7-1.1,7.7-1.4,9,0.2c1.8,2.2,2.1,6.7,1.3,9.7c-4,15-13.2,26.3-26.1,34.6c-9,5.8-19.1,6.2-29.3,6.8c-3.4,0.2-6.8,0.5-10.3,0.8
	c-0.2,0.5-0.4,1-0.5,1.5c11.9,7.8,23.6,16,35.8,23.4c7.9,4.8,16.5,8.6,25,12.3c11,4.9,22.1,3.9,32.8-1.3
	c14.2-6.8,25.8-17.1,37.3-27.4c21.4-19,42.2-38.8,64.3-57c28.4-23.3,60.5-40.3,97-47c53.3-9.7,101.8,2.4,145.2,34.7
	c22,16.4,39.3,37.2,56,58.8c36.2,46.7,73.2,92.7,117.6,131.9c12.8,11.3,27.1,21,41.6,30.1c14.8,9.4,32.3,11,49.4,12.9
	c34.5,3.9,68.2,0,100.2-14c9-3.9,17.7-8.6,26.5-12.7c2.3-1.1,4.8-1.6,8.1-2.7c-0.6,2-0.7,2.9-1.1,3.5c-8,10.8-15.2,22.2-27.8,28.7
	c-64.1,32.8-129.7,35.5-196.7,10.2c-44.8-16.9-82.9-44.3-117.3-77.1c-5.9-5.6-11.7-11.4-17.6-17c-4.9-4.6-8.7-4.7-13.4,0.2
	c-2.8,2.8-5.4,6.1-7.1,9.6c-8.3,17.3-21.9,30-36.3,42c-1.5,1.3-3.1,2.6-4.7,3.7c-12.8,8.1-15.2,19.7-11.6,33.5
	c4.7,18,13.9,33.9,24.2,49c15.4,22.6,31.4,44.7,47,67.1c4.2,6.1,8.2,12.6,11.1,19.4c1.6,3.8,2,8.8,1.1,12.9
	c-6.6,30.3-7.1,60.8-5.4,91.5c0.8,13.8,2.7,27.5,4.5,41.2c0.4,2.7,1.9,5.7,3.7,7.8c12.5,14.7,20,30.9,17.4,50.8
	c-0.3,2.2,0.4,4.6,0.7,6.9c0.8,5.9-2.6,9.4-8.2,7.6c-4.5-1.4-9-3.8-12.5-6.9c-16.6-14.4-26.1-32.5-27.3-54.7
	c-1.5-28.4-2.9-56.9-5.1-85.3c-1.2-15.1-3.4-30.1-6.3-45c-5-25.4-20.4-44.9-40.2-60.3c-18.9-14.7-39.1-27.6-58.9-41.3
	c-5.1-3.5-10.3-6.8-15.5-10c-16-10.1-29.4-22.8-40-38.6c-4.4-6.6-9.1-13.2-14-19.5c-3.3-4.2-7-8-10.9-11.6c-3.7-3.5-7.1-4.3-13-2
	c-10.7,4.2-22.3,6.4-33.7,8.2c-14.6,2.3-29.4,3.6-44.2,5c-7.8,0.8-11.7,4.9-13.4,12.4c-3.9,18.2-3.2,36.1,2.6,53.7
	c2.8,8.3,8,14.8,15.3,19.8c3.8,2.6,7,6,9.7,8.3c-3.1,3.6-4.9,6.4-7.4,8.3c-1.6,1.2-4.9,2.1-6.3,1.3c-4.9-2.7-9.7-5.9-13.9-9.6
	c-15-13.2-24.3-30.3-32.6-48c-4-8.4-7.7-17-10.9-25.7c-3.7-10-10.4-16.9-19.9-21.3c-3.8-1.7-7.6-3.6-11.5-4.8
	c-22.2-7-39.1-21-52.8-39.3c-8.5-11.3-17.2-22.5-25.9-33.7c-2.2-2.9-4.9-5.4-7.5-8c-6.3-6.1-12.9-8.7-22.1-5.2
	c-15.9,6.1-32.2,5.3-47.6-2.1c-14-6.8-27.7-7-42.1-1.9c-10.4,3.7-26.7-4-33.2-15.1c-0.6-1-1.1-2-1.7-3C-393,64.5-393,63.1-393,61.8z
	"/>
</svg>
